<svg width="38" height="38" viewBox="0 0 38 38" fill="none" xmlns="http://www.w3.org/2000/svg">
<path d="M29.9618 24.2591C28.9785 23.2319 27.1387 21.6866 27.1387 16.6249C27.1387 12.7804 24.3661 9.70278 20.6275 8.94773V7.91658C20.6275 7.04229 19.8987 6.33325 19 6.33325C18.1012 6.33325 17.3724 7.04229 17.3724 7.91658V8.94773C13.6338 9.70278 10.8612 12.7804 10.8612 16.6249C10.8612 21.6866 9.02144 23.2319 8.0382 24.2591C7.73284 24.5782 7.59747 24.9597 7.60001 25.3332C7.60561 26.1447 8.2606 26.9166 9.23367 26.9166L28.7663 26.9166C29.7393 26.9166 30.3948 26.1447 30.3999 25.3332C30.4025 24.9597 30.2671 24.5777 29.9618 24.2591ZM11.0368 24.5416C12.1167 23.1576 13.2974 20.8638 13.303 16.6536C13.303 16.6437 13.3 16.6348 13.3 16.6249C13.3 13.5641 15.8518 11.0833 19 11.0833C22.1482 11.0833 24.7 13.5641 24.7 16.6249C24.7 16.6348 24.6969 16.6437 24.6969 16.6536C24.7025 20.8643 25.8832 23.1581 26.9632 24.5416L11.0368 24.5416ZM19 31.6666C20.7975 31.6666 22.2556 30.249 22.2556 28.4999L15.7444 28.4999C15.7444 30.249 17.2024 31.6666 19 31.6666Z" fill="white"/>
</svg>
