<svg width="13" height="13" viewBox="0 0 13 13" fill="none" xmlns="http://www.w3.org/2000/svg">
<path d="M2.39416 11.147C2.31901 11.1468 2.24471 11.1311 2.17598 11.1007C2.10725 11.0703 2.0456 11.0259 1.99495 10.9704C1.94339 10.9153 1.90404 10.85 1.87948 10.7787C1.85493 10.7074 1.84574 10.6317 1.85249 10.5565L1.9852 9.09729L8.11579 2.96887L10.0317 4.88421L3.9027 11.0121L2.44345 11.1448C2.42707 11.1463 2.41062 11.147 2.39416 11.147V11.147ZM10.4141 4.50125L8.49874 2.58591L9.64762 1.43704C9.69793 1.38668 9.75767 1.34672 9.82342 1.31946C9.88918 1.29221 9.95967 1.27818 10.0308 1.27818C10.102 1.27818 10.1725 1.29221 10.2383 1.31946C10.304 1.34672 10.3638 1.38668 10.4141 1.43704L11.563 2.58591C11.6133 2.63622 11.6533 2.69596 11.6805 2.76172C11.7078 2.82747 11.7218 2.89796 11.7218 2.96914C11.7218 3.04033 11.7078 3.11081 11.6805 3.17657C11.6533 3.24233 11.6133 3.30207 11.563 3.35237L10.4146 4.50071L10.4141 4.50125V4.50125Z" fill="#1E1E1E"/>
</svg>
