<svg width="32" height="32" viewBox="0 0 32 32" fill="none" xmlns="http://www.w3.org/2000/svg">
<circle cx="16" cy="16" r="16" fill="#414141"/>
<path d="M22.9703 19.3442C22.3451 18.691 21.1753 17.7085 21.1753 14.4898C21.1753 12.0452 19.4122 10.0882 17.0349 9.6081V8.95242C17.0349 8.39648 16.5715 7.94562 16 7.94562C15.4285 7.94562 14.9651 8.39648 14.9651 8.95242V9.6081C12.5878 10.0882 10.8248 12.0452 10.8248 14.4898C10.8248 17.7085 9.65491 18.691 9.02969 19.3442C8.83552 19.5471 8.74944 19.7897 8.75106 20.0272C8.75462 20.5432 9.17111 21.0341 9.78986 21.0341H22.2102C22.8289 21.0341 23.2457 20.5432 23.249 20.0272C23.2506 19.7897 23.1645 19.5468 22.9703 19.3442V19.3442ZM10.9364 19.5238C11.6231 18.6438 12.3739 17.1852 12.3775 14.5081C12.3775 14.5018 12.3755 14.4961 12.3755 14.4898C12.3755 12.5436 13.9981 10.966 16 10.966C18.0019 10.966 19.6245 12.5436 19.6245 14.4898C19.6245 14.4961 19.6226 14.5018 19.6226 14.5081C19.6261 17.1855 20.3769 18.6442 21.0636 19.5238H10.9364ZM16 24.0545C17.143 24.0545 18.0702 23.1531 18.0702 22.0409H13.9299C13.9299 23.1531 14.857 24.0545 16 24.0545Z" fill="#AFAFAF"/>
</svg>
