<svg width="38" height="38" viewBox="0 0 38 38" fill="none" xmlns="http://www.w3.org/2000/svg">
<rect width="38" height="38" rx="15" fill="#0269DD" fill-opacity="0.2"/>
<path d="M20 16H18V14H20V16ZM20 24H18V18H20V24ZM19 9C17.6868 9 16.3864 9.25866 15.1732 9.7612C13.9599 10.2638 12.8575 11.0003 11.9289 11.9289C10.0536 13.8043 9 16.3478 9 19C9 21.6522 10.0536 24.1957 11.9289 26.0711C12.8575 26.9997 13.9599 27.7362 15.1732 28.2388C16.3864 28.7413 17.6868 29 19 29C21.6522 29 24.1957 27.9464 26.0711 26.0711C27.9464 24.1957 29 21.6522 29 19C29 17.6868 28.7413 16.3864 28.2388 15.1732C27.7362 13.9599 26.9997 12.8575 26.0711 11.9289C25.1425 11.0003 24.0401 10.2638 22.8268 9.7612C21.6136 9.25866 20.3132 9 19 9V9Z" fill="#2776FC"/>
</svg>
