<svg width="32" height="32" viewBox="0 0 32 32" fill="none" xmlns="http://www.w3.org/2000/svg">
<path d="M0 12.6316C0 5.65535 5.65535 0 12.6316 0H19.3684C26.3446 0 32 5.65535 32 12.6316V19.3684C32 26.3446 26.3446 32 19.3684 32H12.6316C5.65535 32 0 26.3446 0 19.3684V12.6316Z" fill="#4F2F29"/>
<path d="M14.5321 8.83249L7.20743 21.6168C7.06712 21.8616 6.9957 22.1374 7.0002 22.4168C7.0047 22.6962 7.08496 22.9696 7.23308 23.2102C7.38119 23.4507 7.59205 23.6501 7.84487 23.7886C8.09768 23.9271 8.38373 24 8.67481 24H23.3252C23.6163 24 23.9023 23.9271 24.1551 23.7886C24.4079 23.6501 24.6188 23.4507 24.7669 23.2102C24.915 22.9696 24.9953 22.6962 24.9998 22.4168C25.0043 22.1374 24.9329 21.8616 24.7926 21.6168L17.4668 8.83249C17.3222 8.58036 17.1098 8.37011 16.8517 8.22368C16.5936 8.07725 16.2993 8 15.9994 8C15.6996 8 15.4053 8.07725 15.1472 8.22368C14.8891 8.37011 14.6767 8.58036 14.5321 8.83249ZM15.9994 13.0114C16.2216 13.0114 16.4346 13.0961 16.5917 13.2469C16.7487 13.3977 16.837 13.6022 16.837 13.8154V18.1037C16.837 18.3169 16.7487 18.5214 16.5917 18.6722C16.4346 18.823 16.2216 18.9077 15.9994 18.9077C15.7773 18.9077 15.5643 18.823 15.4072 18.6722C15.2501 18.5214 15.1619 18.3169 15.1619 18.1037V13.8154C15.1619 13.6022 15.2501 13.3977 15.4072 13.2469C15.5643 13.0961 15.7773 13.0114 15.9994 13.0114ZM16.837 20.5158C16.837 20.729 16.7487 20.9336 16.5917 21.0843C16.4346 21.2351 16.2216 21.3198 15.9994 21.3198C15.7773 21.3198 15.5643 21.2351 15.4072 21.0843C15.2501 20.9336 15.1619 20.729 15.1619 20.5158C15.1619 20.3026 15.2501 20.098 15.4072 19.9473C15.5643 19.7965 15.7773 19.7118 15.9994 19.7118C16.2216 19.7118 16.4346 19.7965 16.5917 19.9473C16.7487 20.098 16.837 20.3026 16.837 20.5158Z" fill="#EC4D2C"/>
</svg>
